<mxfile host="app.diagrams.net" modified="2024-01-14T15:38:01.628Z" agent="Mozilla/5.0 (Windows NT 10.0; Win64; x64) AppleWebKit/537.36 (KHTML, like Gecko) Chrome/120.0.0.0 Safari/537.36" etag="4aRS_aAHu_vzGgC0ZFeX" version="22.1.18" type="device">
  <diagram id="C5RBs43oDa-KdzZeNtuy" name="Page-1">
    <mxGraphModel dx="2571" dy="1103" grid="1" gridSize="10" guides="1" tooltips="1" connect="1" arrows="1" fold="1" page="1" pageScale="1" pageWidth="827" pageHeight="1169" math="0" shadow="0">
      <root>
        <mxCell id="WIyWlLk6GJQsqaUBKTNV-0" />
        <mxCell id="WIyWlLk6GJQsqaUBKTNV-1" parent="WIyWlLk6GJQsqaUBKTNV-0" />
        <mxCell id="BUMpz3Wjc4UM3U7FbIUF-25" style="edgeStyle=orthogonalEdgeStyle;rounded=0;orthogonalLoop=1;jettySize=auto;html=1;exitX=1;exitY=0.3333333333333333;exitDx=0;exitDy=0;exitPerimeter=0;" edge="1" parent="WIyWlLk6GJQsqaUBKTNV-1" source="BUMpz3Wjc4UM3U7FbIUF-1" target="BUMpz3Wjc4UM3U7FbIUF-18">
          <mxGeometry relative="1" as="geometry" />
        </mxCell>
        <mxCell id="BUMpz3Wjc4UM3U7FbIUF-1" value="Player" style="shape=umlActor;verticalLabelPosition=bottom;verticalAlign=top;html=1;outlineConnect=0;" vertex="1" parent="WIyWlLk6GJQsqaUBKTNV-1">
          <mxGeometry x="210" y="682.5" width="30" height="60" as="geometry" />
        </mxCell>
        <mxCell id="BUMpz3Wjc4UM3U7FbIUF-2" value="As a user, I want to measure my wpm" style="rounded=0;whiteSpace=wrap;html=1;" vertex="1" parent="WIyWlLk6GJQsqaUBKTNV-1">
          <mxGeometry x="90" y="692.5" width="120" height="40" as="geometry" />
        </mxCell>
        <mxCell id="BUMpz3Wjc4UM3U7FbIUF-38" style="edgeStyle=orthogonalEdgeStyle;rounded=0;orthogonalLoop=1;jettySize=auto;html=1;exitX=1;exitY=0.3333333333333333;exitDx=0;exitDy=0;exitPerimeter=0;entryX=0;entryY=0.5;entryDx=0;entryDy=0;" edge="1" parent="WIyWlLk6GJQsqaUBKTNV-1" source="BUMpz3Wjc4UM3U7FbIUF-14" target="BUMpz3Wjc4UM3U7FbIUF-27">
          <mxGeometry relative="1" as="geometry" />
        </mxCell>
        <mxCell id="BUMpz3Wjc4UM3U7FbIUF-14" value="Player" style="shape=umlActor;verticalLabelPosition=bottom;verticalAlign=top;html=1;outlineConnect=0;" vertex="1" parent="WIyWlLk6GJQsqaUBKTNV-1">
          <mxGeometry x="210" y="770" width="30" height="60" as="geometry" />
        </mxCell>
        <mxCell id="BUMpz3Wjc4UM3U7FbIUF-22" style="edgeStyle=orthogonalEdgeStyle;rounded=0;orthogonalLoop=1;jettySize=auto;html=1;" edge="1" parent="WIyWlLk6GJQsqaUBKTNV-1" source="BUMpz3Wjc4UM3U7FbIUF-18" target="BUMpz3Wjc4UM3U7FbIUF-20">
          <mxGeometry relative="1" as="geometry" />
        </mxCell>
        <mxCell id="BUMpz3Wjc4UM3U7FbIUF-18" value="Implement a timer for one minute" style="ellipse;whiteSpace=wrap;html=1;" vertex="1" parent="WIyWlLk6GJQsqaUBKTNV-1">
          <mxGeometry x="270" y="670" width="150" height="65" as="geometry" />
        </mxCell>
        <mxCell id="BUMpz3Wjc4UM3U7FbIUF-20" value="Count amount of completed words written" style="ellipse;whiteSpace=wrap;html=1;" vertex="1" parent="WIyWlLk6GJQsqaUBKTNV-1">
          <mxGeometry x="460" y="672.5" width="160" height="60" as="geometry" />
        </mxCell>
        <mxCell id="BUMpz3Wjc4UM3U7FbIUF-23" value="As a user, I want the option to sign in and store my results&amp;nbsp;" style="rounded=0;whiteSpace=wrap;html=1;" vertex="1" parent="WIyWlLk6GJQsqaUBKTNV-1">
          <mxGeometry x="90" y="780" width="120" height="40" as="geometry" />
        </mxCell>
        <mxCell id="BUMpz3Wjc4UM3U7FbIUF-39" style="edgeStyle=orthogonalEdgeStyle;rounded=0;orthogonalLoop=1;jettySize=auto;html=1;exitX=1;exitY=0.5;exitDx=0;exitDy=0;entryX=0;entryY=0.5;entryDx=0;entryDy=0;" edge="1" parent="WIyWlLk6GJQsqaUBKTNV-1" source="BUMpz3Wjc4UM3U7FbIUF-27" target="BUMpz3Wjc4UM3U7FbIUF-32">
          <mxGeometry relative="1" as="geometry" />
        </mxCell>
        <mxCell id="BUMpz3Wjc4UM3U7FbIUF-27" value="create account with username and password" style="ellipse;whiteSpace=wrap;html=1;" vertex="1" parent="WIyWlLk6GJQsqaUBKTNV-1">
          <mxGeometry x="290" y="758.75" width="150" height="62.5" as="geometry" />
        </mxCell>
        <mxCell id="BUMpz3Wjc4UM3U7FbIUF-41" style="edgeStyle=orthogonalEdgeStyle;rounded=0;orthogonalLoop=1;jettySize=auto;html=1;exitX=1;exitY=0.5;exitDx=0;exitDy=0;entryX=0;entryY=0.5;entryDx=0;entryDy=0;" edge="1" parent="WIyWlLk6GJQsqaUBKTNV-1" source="BUMpz3Wjc4UM3U7FbIUF-32" target="BUMpz3Wjc4UM3U7FbIUF-34">
          <mxGeometry relative="1" as="geometry" />
        </mxCell>
        <mxCell id="BUMpz3Wjc4UM3U7FbIUF-32" value="Store in database" style="ellipse;whiteSpace=wrap;html=1;" vertex="1" parent="WIyWlLk6GJQsqaUBKTNV-1">
          <mxGeometry x="490" y="760" width="130" height="60" as="geometry" />
        </mxCell>
        <mxCell id="BUMpz3Wjc4UM3U7FbIUF-34" value="Store WPM in database assigned to that username" style="ellipse;whiteSpace=wrap;html=1;" vertex="1" parent="WIyWlLk6GJQsqaUBKTNV-1">
          <mxGeometry x="667" y="760" width="160" height="60" as="geometry" />
        </mxCell>
        <mxCell id="BUMpz3Wjc4UM3U7FbIUF-43" value="As a user, I want to choose how long the typing test is&lt;span style=&quot;white-space: pre;&quot;&gt;&#x9;&lt;/span&gt;" style="rounded=0;whiteSpace=wrap;html=1;" vertex="1" parent="WIyWlLk6GJQsqaUBKTNV-1">
          <mxGeometry x="90" y="880" width="120" height="40" as="geometry" />
        </mxCell>
        <mxCell id="BUMpz3Wjc4UM3U7FbIUF-48" style="edgeStyle=orthogonalEdgeStyle;rounded=0;orthogonalLoop=1;jettySize=auto;html=1;exitX=1;exitY=0.3333333333333333;exitDx=0;exitDy=0;exitPerimeter=0;entryX=0;entryY=0.5;entryDx=0;entryDy=0;" edge="1" parent="WIyWlLk6GJQsqaUBKTNV-1" source="BUMpz3Wjc4UM3U7FbIUF-49" target="BUMpz3Wjc4UM3U7FbIUF-51">
          <mxGeometry relative="1" as="geometry" />
        </mxCell>
        <mxCell id="BUMpz3Wjc4UM3U7FbIUF-49" value="Player" style="shape=umlActor;verticalLabelPosition=bottom;verticalAlign=top;html=1;outlineConnect=0;" vertex="1" parent="WIyWlLk6GJQsqaUBKTNV-1">
          <mxGeometry x="210" y="871.25" width="30" height="60" as="geometry" />
        </mxCell>
        <mxCell id="BUMpz3Wjc4UM3U7FbIUF-50" style="edgeStyle=orthogonalEdgeStyle;rounded=0;orthogonalLoop=1;jettySize=auto;html=1;exitX=1;exitY=0.5;exitDx=0;exitDy=0;entryX=0;entryY=0.5;entryDx=0;entryDy=0;" edge="1" parent="WIyWlLk6GJQsqaUBKTNV-1" source="BUMpz3Wjc4UM3U7FbIUF-51" target="BUMpz3Wjc4UM3U7FbIUF-53">
          <mxGeometry relative="1" as="geometry" />
        </mxCell>
        <mxCell id="BUMpz3Wjc4UM3U7FbIUF-51" value="Pick timer" style="ellipse;whiteSpace=wrap;html=1;" vertex="1" parent="WIyWlLk6GJQsqaUBKTNV-1">
          <mxGeometry x="290" y="860" width="90" height="62.5" as="geometry" />
        </mxCell>
        <mxCell id="BUMpz3Wjc4UM3U7FbIUF-52" style="edgeStyle=orthogonalEdgeStyle;rounded=0;orthogonalLoop=1;jettySize=auto;html=1;exitX=1;exitY=0.5;exitDx=0;exitDy=0;entryX=0;entryY=0.5;entryDx=0;entryDy=0;" edge="1" parent="WIyWlLk6GJQsqaUBKTNV-1" source="BUMpz3Wjc4UM3U7FbIUF-53" target="BUMpz3Wjc4UM3U7FbIUF-54">
          <mxGeometry relative="1" as="geometry" />
        </mxCell>
        <mxCell id="BUMpz3Wjc4UM3U7FbIUF-53" value="Start timer once typing test begins" style="ellipse;whiteSpace=wrap;html=1;" vertex="1" parent="WIyWlLk6GJQsqaUBKTNV-1">
          <mxGeometry x="440" y="860.63" width="130" height="60" as="geometry" />
        </mxCell>
        <mxCell id="BUMpz3Wjc4UM3U7FbIUF-54" value="based on the timer, changes calucation of WPM (e.g if timer 30s, times amount of words written by 2)" style="ellipse;whiteSpace=wrap;html=1;" vertex="1" parent="WIyWlLk6GJQsqaUBKTNV-1">
          <mxGeometry x="620" y="861.88" width="203" height="58.75" as="geometry" />
        </mxCell>
        <mxCell id="BUMpz3Wjc4UM3U7FbIUF-55" value="As a user, I want to be able to see the improvement of my wpm score on a graph" style="rounded=0;whiteSpace=wrap;html=1;" vertex="1" parent="WIyWlLk6GJQsqaUBKTNV-1">
          <mxGeometry x="80" y="970" width="150" height="50" as="geometry" />
        </mxCell>
        <mxCell id="BUMpz3Wjc4UM3U7FbIUF-56" style="edgeStyle=orthogonalEdgeStyle;rounded=0;orthogonalLoop=1;jettySize=auto;html=1;exitX=1;exitY=0.3333333333333333;exitDx=0;exitDy=0;exitPerimeter=0;entryX=0;entryY=0.5;entryDx=0;entryDy=0;" edge="1" parent="WIyWlLk6GJQsqaUBKTNV-1" source="BUMpz3Wjc4UM3U7FbIUF-57" target="BUMpz3Wjc4UM3U7FbIUF-59">
          <mxGeometry relative="1" as="geometry" />
        </mxCell>
        <mxCell id="BUMpz3Wjc4UM3U7FbIUF-57" value="Player" style="shape=umlActor;verticalLabelPosition=bottom;verticalAlign=top;html=1;outlineConnect=0;" vertex="1" parent="WIyWlLk6GJQsqaUBKTNV-1">
          <mxGeometry x="230" y="961.25" width="30" height="60" as="geometry" />
        </mxCell>
        <mxCell id="BUMpz3Wjc4UM3U7FbIUF-58" style="edgeStyle=orthogonalEdgeStyle;rounded=0;orthogonalLoop=1;jettySize=auto;html=1;exitX=1;exitY=0.5;exitDx=0;exitDy=0;entryX=0;entryY=0.5;entryDx=0;entryDy=0;" edge="1" parent="WIyWlLk6GJQsqaUBKTNV-1" source="BUMpz3Wjc4UM3U7FbIUF-59" target="BUMpz3Wjc4UM3U7FbIUF-61">
          <mxGeometry relative="1" as="geometry" />
        </mxCell>
        <mxCell id="BUMpz3Wjc4UM3U7FbIUF-59" value="Access stored WPM results" style="ellipse;whiteSpace=wrap;html=1;" vertex="1" parent="WIyWlLk6GJQsqaUBKTNV-1">
          <mxGeometry x="310" y="950" width="150" height="62.5" as="geometry" />
        </mxCell>
        <mxCell id="BUMpz3Wjc4UM3U7FbIUF-61" value="Create a graph based on amount of time/amount of tests" style="ellipse;whiteSpace=wrap;html=1;" vertex="1" parent="WIyWlLk6GJQsqaUBKTNV-1">
          <mxGeometry x="510" y="951.25" width="220" height="58.75" as="geometry" />
        </mxCell>
        <mxCell id="BUMpz3Wjc4UM3U7FbIUF-63" value="As a user, I want to change the type of typing test I&#39;m doing" style="rounded=0;whiteSpace=wrap;html=1;" vertex="1" parent="WIyWlLk6GJQsqaUBKTNV-1">
          <mxGeometry x="80" y="1060" width="150" height="50" as="geometry" />
        </mxCell>
        <mxCell id="BUMpz3Wjc4UM3U7FbIUF-64" style="edgeStyle=orthogonalEdgeStyle;rounded=0;orthogonalLoop=1;jettySize=auto;html=1;exitX=1;exitY=0.3333333333333333;exitDx=0;exitDy=0;exitPerimeter=0;entryX=0;entryY=0.5;entryDx=0;entryDy=0;" edge="1" parent="WIyWlLk6GJQsqaUBKTNV-1" source="BUMpz3Wjc4UM3U7FbIUF-65" target="BUMpz3Wjc4UM3U7FbIUF-67">
          <mxGeometry relative="1" as="geometry" />
        </mxCell>
        <mxCell id="BUMpz3Wjc4UM3U7FbIUF-65" value="Player" style="shape=umlActor;verticalLabelPosition=bottom;verticalAlign=top;html=1;outlineConnect=0;" vertex="1" parent="WIyWlLk6GJQsqaUBKTNV-1">
          <mxGeometry x="230" y="1051.25" width="30" height="60" as="geometry" />
        </mxCell>
        <mxCell id="BUMpz3Wjc4UM3U7FbIUF-66" style="edgeStyle=orthogonalEdgeStyle;rounded=0;orthogonalLoop=1;jettySize=auto;html=1;exitX=1;exitY=0.5;exitDx=0;exitDy=0;entryX=0;entryY=0.5;entryDx=0;entryDy=0;" edge="1" parent="WIyWlLk6GJQsqaUBKTNV-1" source="BUMpz3Wjc4UM3U7FbIUF-67" target="BUMpz3Wjc4UM3U7FbIUF-68">
          <mxGeometry relative="1" as="geometry" />
        </mxCell>
        <mxCell id="BUMpz3Wjc4UM3U7FbIUF-67" value="Choose option" style="ellipse;whiteSpace=wrap;html=1;" vertex="1" parent="WIyWlLk6GJQsqaUBKTNV-1">
          <mxGeometry x="310" y="1040" width="100" height="62.5" as="geometry" />
        </mxCell>
        <mxCell id="BUMpz3Wjc4UM3U7FbIUF-68" value="Display chosen typing test (e.g words, essay, easy, hard, medium)" style="ellipse;whiteSpace=wrap;html=1;" vertex="1" parent="WIyWlLk6GJQsqaUBKTNV-1">
          <mxGeometry x="470" y="1041.88" width="250" height="58.12" as="geometry" />
        </mxCell>
        <mxCell id="BUMpz3Wjc4UM3U7FbIUF-69" value="As a user, I want to see my errors as I&#39;m doing them" style="rounded=0;whiteSpace=wrap;html=1;" vertex="1" parent="WIyWlLk6GJQsqaUBKTNV-1">
          <mxGeometry x="80" y="1150" width="150" height="50" as="geometry" />
        </mxCell>
        <mxCell id="BUMpz3Wjc4UM3U7FbIUF-70" style="edgeStyle=orthogonalEdgeStyle;rounded=0;orthogonalLoop=1;jettySize=auto;html=1;exitX=1;exitY=0.3333333333333333;exitDx=0;exitDy=0;exitPerimeter=0;entryX=0;entryY=0.5;entryDx=0;entryDy=0;" edge="1" parent="WIyWlLk6GJQsqaUBKTNV-1" source="BUMpz3Wjc4UM3U7FbIUF-71" target="BUMpz3Wjc4UM3U7FbIUF-73">
          <mxGeometry relative="1" as="geometry" />
        </mxCell>
        <mxCell id="BUMpz3Wjc4UM3U7FbIUF-71" value="Player" style="shape=umlActor;verticalLabelPosition=bottom;verticalAlign=top;html=1;outlineConnect=0;" vertex="1" parent="WIyWlLk6GJQsqaUBKTNV-1">
          <mxGeometry x="230" y="1141.25" width="30" height="60" as="geometry" />
        </mxCell>
        <mxCell id="BUMpz3Wjc4UM3U7FbIUF-73" value="Display errors in red" style="ellipse;whiteSpace=wrap;html=1;" vertex="1" parent="WIyWlLk6GJQsqaUBKTNV-1">
          <mxGeometry x="310" y="1130" width="100" height="62.5" as="geometry" />
        </mxCell>
        <mxCell id="BUMpz3Wjc4UM3U7FbIUF-176" style="edgeStyle=orthogonalEdgeStyle;rounded=0;orthogonalLoop=1;jettySize=auto;html=1;entryX=0;entryY=0.5;entryDx=0;entryDy=0;" edge="1" parent="WIyWlLk6GJQsqaUBKTNV-1" source="BUMpz3Wjc4UM3U7FbIUF-177" target="BUMpz3Wjc4UM3U7FbIUF-194">
          <mxGeometry relative="1" as="geometry" />
        </mxCell>
        <mxCell id="BUMpz3Wjc4UM3U7FbIUF-177" value="Start" style="ellipse;whiteSpace=wrap;html=1;" vertex="1" parent="WIyWlLk6GJQsqaUBKTNV-1">
          <mxGeometry x="-20" y="90" width="70" height="40" as="geometry" />
        </mxCell>
        <mxCell id="BUMpz3Wjc4UM3U7FbIUF-178" style="edgeStyle=orthogonalEdgeStyle;rounded=0;orthogonalLoop=1;jettySize=auto;html=1;entryX=0.5;entryY=0;entryDx=0;entryDy=0;" edge="1" parent="WIyWlLk6GJQsqaUBKTNV-1" source="BUMpz3Wjc4UM3U7FbIUF-179" target="BUMpz3Wjc4UM3U7FbIUF-185">
          <mxGeometry relative="1" as="geometry" />
        </mxCell>
        <mxCell id="BUMpz3Wjc4UM3U7FbIUF-179" value="Has Typing started in inputbox?" style="rhombus;whiteSpace=wrap;html=1;" vertex="1" parent="WIyWlLk6GJQsqaUBKTNV-1">
          <mxGeometry x="470" y="68.75" width="110" height="82.5" as="geometry" />
        </mxCell>
        <mxCell id="BUMpz3Wjc4UM3U7FbIUF-180" style="edgeStyle=orthogonalEdgeStyle;rounded=0;orthogonalLoop=1;jettySize=auto;html=1;entryX=0;entryY=0.5;entryDx=0;entryDy=0;" edge="1" parent="WIyWlLk6GJQsqaUBKTNV-1" source="BUMpz3Wjc4UM3U7FbIUF-181" target="BUMpz3Wjc4UM3U7FbIUF-179">
          <mxGeometry relative="1" as="geometry" />
        </mxCell>
        <mxCell id="BUMpz3Wjc4UM3U7FbIUF-181" value="Display website (HTML)" style="rounded=0;whiteSpace=wrap;html=1;" vertex="1" parent="WIyWlLk6GJQsqaUBKTNV-1">
          <mxGeometry x="370" y="90" width="70" height="40" as="geometry" />
        </mxCell>
        <mxCell id="BUMpz3Wjc4UM3U7FbIUF-182" style="edgeStyle=orthogonalEdgeStyle;rounded=0;orthogonalLoop=1;jettySize=auto;html=1;" edge="1" parent="WIyWlLk6GJQsqaUBKTNV-1" source="BUMpz3Wjc4UM3U7FbIUF-183" target="BUMpz3Wjc4UM3U7FbIUF-181">
          <mxGeometry relative="1" as="geometry" />
        </mxCell>
        <mxCell id="BUMpz3Wjc4UM3U7FbIUF-183" value="create psuedo-randomise words in an array" style="rounded=0;whiteSpace=wrap;html=1;" vertex="1" parent="WIyWlLk6GJQsqaUBKTNV-1">
          <mxGeometry x="210" y="90" width="130" height="40" as="geometry" />
        </mxCell>
        <mxCell id="BUMpz3Wjc4UM3U7FbIUF-184" style="edgeStyle=orthogonalEdgeStyle;rounded=0;orthogonalLoop=1;jettySize=auto;html=1;entryX=0.5;entryY=0;entryDx=0;entryDy=0;" edge="1" parent="WIyWlLk6GJQsqaUBKTNV-1" source="BUMpz3Wjc4UM3U7FbIUF-185" target="BUMpz3Wjc4UM3U7FbIUF-197">
          <mxGeometry relative="1" as="geometry" />
        </mxCell>
        <mxCell id="BUMpz3Wjc4UM3U7FbIUF-185" value="Start timer" style="rounded=0;whiteSpace=wrap;html=1;" vertex="1" parent="WIyWlLk6GJQsqaUBKTNV-1">
          <mxGeometry x="490" y="210" width="70" height="40" as="geometry" />
        </mxCell>
        <mxCell id="BUMpz3Wjc4UM3U7FbIUF-186" style="edgeStyle=orthogonalEdgeStyle;rounded=0;orthogonalLoop=1;jettySize=auto;html=1;entryX=0.5;entryY=0;entryDx=0;entryDy=0;" edge="1" parent="WIyWlLk6GJQsqaUBKTNV-1" source="BUMpz3Wjc4UM3U7FbIUF-188" target="BUMpz3Wjc4UM3U7FbIUF-190">
          <mxGeometry relative="1" as="geometry" />
        </mxCell>
        <mxCell id="BUMpz3Wjc4UM3U7FbIUF-187" style="edgeStyle=orthogonalEdgeStyle;rounded=0;orthogonalLoop=1;jettySize=auto;html=1;exitX=0;exitY=0.5;exitDx=0;exitDy=0;entryX=0;entryY=1;entryDx=0;entryDy=0;" edge="1" parent="WIyWlLk6GJQsqaUBKTNV-1" source="BUMpz3Wjc4UM3U7FbIUF-188" target="BUMpz3Wjc4UM3U7FbIUF-197">
          <mxGeometry relative="1" as="geometry" />
        </mxCell>
        <mxCell id="BUMpz3Wjc4UM3U7FbIUF-188" value="is input correct?&amp;nbsp;&amp;nbsp;&lt;br&gt;(is input = array[0]?)" style="rhombus;whiteSpace=wrap;html=1;" vertex="1" parent="WIyWlLk6GJQsqaUBKTNV-1">
          <mxGeometry x="476.25" y="420" width="97.5" height="100" as="geometry" />
        </mxCell>
        <mxCell id="BUMpz3Wjc4UM3U7FbIUF-189" style="edgeStyle=orthogonalEdgeStyle;rounded=0;orthogonalLoop=1;jettySize=auto;html=1;entryX=0;entryY=0.5;entryDx=0;entryDy=0;" edge="1" parent="WIyWlLk6GJQsqaUBKTNV-1" source="BUMpz3Wjc4UM3U7FbIUF-190" target="BUMpz3Wjc4UM3U7FbIUF-192">
          <mxGeometry relative="1" as="geometry">
            <mxPoint x="630" y="575" as="targetPoint" />
          </mxGeometry>
        </mxCell>
        <mxCell id="BUMpz3Wjc4UM3U7FbIUF-190" value="increment completed words&lt;br&gt;" style="rounded=0;whiteSpace=wrap;html=1;" vertex="1" parent="WIyWlLk6GJQsqaUBKTNV-1">
          <mxGeometry x="490" y="555" width="70" height="40" as="geometry" />
        </mxCell>
        <mxCell id="BUMpz3Wjc4UM3U7FbIUF-191" style="edgeStyle=orthogonalEdgeStyle;rounded=0;orthogonalLoop=1;jettySize=auto;html=1;entryX=1;entryY=0.5;entryDx=0;entryDy=0;" edge="1" parent="WIyWlLk6GJQsqaUBKTNV-1" source="BUMpz3Wjc4UM3U7FbIUF-192" target="BUMpz3Wjc4UM3U7FbIUF-197">
          <mxGeometry relative="1" as="geometry">
            <Array as="points">
              <mxPoint x="655" y="330" />
            </Array>
          </mxGeometry>
        </mxCell>
        <mxCell id="BUMpz3Wjc4UM3U7FbIUF-192" value="Remove array[0] value from the array." style="rounded=0;whiteSpace=wrap;html=1;" vertex="1" parent="WIyWlLk6GJQsqaUBKTNV-1">
          <mxGeometry x="620" y="530" width="70" height="90" as="geometry" />
        </mxCell>
        <mxCell id="BUMpz3Wjc4UM3U7FbIUF-193" style="edgeStyle=orthogonalEdgeStyle;rounded=0;orthogonalLoop=1;jettySize=auto;html=1;entryX=0;entryY=0.5;entryDx=0;entryDy=0;" edge="1" parent="WIyWlLk6GJQsqaUBKTNV-1" source="BUMpz3Wjc4UM3U7FbIUF-194" target="BUMpz3Wjc4UM3U7FbIUF-183">
          <mxGeometry relative="1" as="geometry" />
        </mxCell>
        <mxCell id="BUMpz3Wjc4UM3U7FbIUF-194" value="completedWords = 0" style="rounded=0;whiteSpace=wrap;html=1;" vertex="1" parent="WIyWlLk6GJQsqaUBKTNV-1">
          <mxGeometry x="90" y="90" width="100" height="40" as="geometry" />
        </mxCell>
        <mxCell id="BUMpz3Wjc4UM3U7FbIUF-195" style="edgeStyle=orthogonalEdgeStyle;rounded=0;orthogonalLoop=1;jettySize=auto;html=1;" edge="1" parent="WIyWlLk6GJQsqaUBKTNV-1" source="BUMpz3Wjc4UM3U7FbIUF-197" target="BUMpz3Wjc4UM3U7FbIUF-188">
          <mxGeometry relative="1" as="geometry" />
        </mxCell>
        <mxCell id="BUMpz3Wjc4UM3U7FbIUF-196" style="edgeStyle=orthogonalEdgeStyle;rounded=0;orthogonalLoop=1;jettySize=auto;html=1;entryX=1;entryY=0.5;entryDx=0;entryDy=0;" edge="1" parent="WIyWlLk6GJQsqaUBKTNV-1" source="BUMpz3Wjc4UM3U7FbIUF-197" target="BUMpz3Wjc4UM3U7FbIUF-204">
          <mxGeometry relative="1" as="geometry">
            <mxPoint x="410" y="330" as="targetPoint" />
          </mxGeometry>
        </mxCell>
        <mxCell id="BUMpz3Wjc4UM3U7FbIUF-197" value="is Timer value less than 60s?" style="rhombus;whiteSpace=wrap;html=1;" vertex="1" parent="WIyWlLk6GJQsqaUBKTNV-1">
          <mxGeometry x="472.5" y="280" width="105" height="100" as="geometry" />
        </mxCell>
        <mxCell id="BUMpz3Wjc4UM3U7FbIUF-198" value="Yes" style="text;html=1;align=center;verticalAlign=middle;resizable=0;points=[];autosize=1;strokeColor=none;fillColor=none;" vertex="1" parent="WIyWlLk6GJQsqaUBKTNV-1">
          <mxGeometry x="520" y="170" width="40" height="30" as="geometry" />
        </mxCell>
        <mxCell id="BUMpz3Wjc4UM3U7FbIUF-199" value="No" style="text;html=1;align=center;verticalAlign=middle;resizable=0;points=[];autosize=1;strokeColor=none;fillColor=none;" vertex="1" parent="WIyWlLk6GJQsqaUBKTNV-1">
          <mxGeometry x="520" y="50" width="40" height="30" as="geometry" />
        </mxCell>
        <mxCell id="BUMpz3Wjc4UM3U7FbIUF-200" value="Yes" style="text;html=1;align=center;verticalAlign=middle;resizable=0;points=[];autosize=1;strokeColor=none;fillColor=none;" vertex="1" parent="WIyWlLk6GJQsqaUBKTNV-1">
          <mxGeometry x="560" y="350" width="40" height="30" as="geometry" />
        </mxCell>
        <mxCell id="BUMpz3Wjc4UM3U7FbIUF-201" value="Yes" style="text;html=1;align=center;verticalAlign=middle;resizable=0;points=[];autosize=1;strokeColor=none;fillColor=none;" vertex="1" parent="WIyWlLk6GJQsqaUBKTNV-1">
          <mxGeometry x="560" y="420" width="40" height="30" as="geometry" />
        </mxCell>
        <mxCell id="BUMpz3Wjc4UM3U7FbIUF-202" style="edgeStyle=orthogonalEdgeStyle;rounded=0;orthogonalLoop=1;jettySize=auto;html=1;entryX=1;entryY=0.5;entryDx=0;entryDy=0;" edge="1" parent="WIyWlLk6GJQsqaUBKTNV-1" source="BUMpz3Wjc4UM3U7FbIUF-179" target="BUMpz3Wjc4UM3U7FbIUF-179">
          <mxGeometry relative="1" as="geometry">
            <Array as="points">
              <mxPoint x="525" y="49" />
              <mxPoint x="640" y="49" />
              <mxPoint x="640" y="110" />
            </Array>
          </mxGeometry>
        </mxCell>
        <mxCell id="BUMpz3Wjc4UM3U7FbIUF-203" style="edgeStyle=orthogonalEdgeStyle;rounded=0;orthogonalLoop=1;jettySize=auto;html=1;" edge="1" parent="WIyWlLk6GJQsqaUBKTNV-1" source="BUMpz3Wjc4UM3U7FbIUF-204">
          <mxGeometry relative="1" as="geometry">
            <mxPoint x="300" y="330" as="targetPoint" />
          </mxGeometry>
        </mxCell>
        <mxCell id="BUMpz3Wjc4UM3U7FbIUF-204" value="End timer" style="rounded=0;whiteSpace=wrap;html=1;" vertex="1" parent="WIyWlLk6GJQsqaUBKTNV-1">
          <mxGeometry x="340" y="310" width="70" height="40" as="geometry" />
        </mxCell>
        <mxCell id="BUMpz3Wjc4UM3U7FbIUF-205" style="edgeStyle=orthogonalEdgeStyle;rounded=0;orthogonalLoop=1;jettySize=auto;html=1;entryX=1;entryY=0.5;entryDx=0;entryDy=0;" edge="1" parent="WIyWlLk6GJQsqaUBKTNV-1" source="BUMpz3Wjc4UM3U7FbIUF-206" target="BUMpz3Wjc4UM3U7FbIUF-209">
          <mxGeometry relative="1" as="geometry">
            <mxPoint x="170" y="330" as="targetPoint" />
          </mxGeometry>
        </mxCell>
        <mxCell id="BUMpz3Wjc4UM3U7FbIUF-206" value="Stop user from inputting" style="rounded=0;whiteSpace=wrap;html=1;" vertex="1" parent="WIyWlLk6GJQsqaUBKTNV-1">
          <mxGeometry x="230" y="310" width="70" height="40" as="geometry" />
        </mxCell>
        <mxCell id="BUMpz3Wjc4UM3U7FbIUF-207" value="No" style="text;html=1;align=center;verticalAlign=middle;resizable=0;points=[];autosize=1;strokeColor=none;fillColor=none;" vertex="1" parent="WIyWlLk6GJQsqaUBKTNV-1">
          <mxGeometry x="450" y="420" width="40" height="30" as="geometry" />
        </mxCell>
        <mxCell id="BUMpz3Wjc4UM3U7FbIUF-208" value="No" style="text;html=1;align=center;verticalAlign=middle;resizable=0;points=[];autosize=1;strokeColor=none;fillColor=none;" vertex="1" parent="WIyWlLk6GJQsqaUBKTNV-1">
          <mxGeometry x="424" y="310" width="40" height="30" as="geometry" />
        </mxCell>
        <mxCell id="BUMpz3Wjc4UM3U7FbIUF-209" value="Calculate and display WPM" style="rounded=0;whiteSpace=wrap;html=1;" vertex="1" parent="WIyWlLk6GJQsqaUBKTNV-1">
          <mxGeometry x="100" y="310" width="70" height="40" as="geometry" />
        </mxCell>
        <mxCell id="BUMpz3Wjc4UM3U7FbIUF-210" style="edgeStyle=orthogonalEdgeStyle;rounded=0;orthogonalLoop=1;jettySize=auto;html=1;entryX=0.5;entryY=1;entryDx=0;entryDy=0;" edge="1" parent="WIyWlLk6GJQsqaUBKTNV-1" source="BUMpz3Wjc4UM3U7FbIUF-209" target="BUMpz3Wjc4UM3U7FbIUF-194">
          <mxGeometry relative="1" as="geometry" />
        </mxCell>
      </root>
    </mxGraphModel>
  </diagram>
</mxfile>
